<mxfile host="app.diagrams.net" modified="2021-12-22T07:18:32.760Z" agent="5.0 (Windows)" etag="sK3NYF2BlunicRN3YvF6" version="16.0.2" type="github">
  <diagram id="HC_JWrDzB2jvOtPKv6SG" name="Page-1">
    <mxGraphModel dx="1038" dy="536" grid="1" gridSize="10" guides="1" tooltips="1" connect="1" arrows="1" fold="1" page="1" pageScale="1" pageWidth="850" pageHeight="1100" math="0" shadow="0">
      <root>
        <mxCell id="0" />
        <mxCell id="1" parent="0" />
        <mxCell id="jWEoxQ6Ga0XIB12J6IWm-1" value="User" style="shape=umlActor;verticalLabelPosition=bottom;verticalAlign=top;html=1;" parent="1" vertex="1">
          <mxGeometry x="150" y="130" width="30" height="60" as="geometry" />
        </mxCell>
        <mxCell id="jWEoxQ6Ga0XIB12J6IWm-2" value="&lt;u&gt;:Total Health&lt;/u&gt;" style="html=1;" parent="1" vertex="1">
          <mxGeometry x="600" y="140" width="110" height="50" as="geometry" />
        </mxCell>
        <mxCell id="jWEoxQ6Ga0XIB12J6IWm-3" value="" style="endArrow=none;dashed=1;html=1;rounded=0;" parent="1" edge="1">
          <mxGeometry width="50" height="50" relative="1" as="geometry">
            <mxPoint x="165" y="540" as="sourcePoint" />
            <mxPoint x="165" y="220" as="targetPoint" />
          </mxGeometry>
        </mxCell>
        <mxCell id="jWEoxQ6Ga0XIB12J6IWm-4" value="" style="endArrow=none;dashed=1;html=1;rounded=0;" parent="1" edge="1">
          <mxGeometry width="50" height="50" relative="1" as="geometry">
            <mxPoint x="654" y="530" as="sourcePoint" />
            <mxPoint x="654.4100000000001" y="190" as="targetPoint" />
          </mxGeometry>
        </mxCell>
        <mxCell id="jWEoxQ6Ga0XIB12J6IWm-5" value="&lt;font face=&quot;Georgia&quot;&gt;Counts Screen Displayed&lt;br&gt;&lt;/font&gt;" style="endArrow=open;endFill=1;endSize=12;html=1;rounded=0;dashed=1;" parent="1" edge="1">
          <mxGeometry width="160" relative="1" as="geometry">
            <mxPoint x="650" y="260" as="sourcePoint" />
            <mxPoint x="170" y="260" as="targetPoint" />
          </mxGeometry>
        </mxCell>
        <mxCell id="jWEoxQ6Ga0XIB12J6IWm-6" value="" style="endArrow=block;endFill=0;endSize=12;html=1;rounded=0;" parent="1" edge="1">
          <mxGeometry width="160" relative="1" as="geometry">
            <mxPoint x="170" y="240" as="sourcePoint" />
            <mxPoint x="650" y="240" as="targetPoint" />
          </mxGeometry>
        </mxCell>
        <mxCell id="jWEoxQ6Ga0XIB12J6IWm-7" value="&lt;font face=&quot;Georgia&quot;&gt;goToCountsScreen()&lt;/font&gt;" style="edgeLabel;html=1;align=center;verticalAlign=middle;resizable=0;points=[];" parent="jWEoxQ6Ga0XIB12J6IWm-6" vertex="1" connectable="0">
          <mxGeometry x="0.0382" y="2" relative="1" as="geometry">
            <mxPoint as="offset" />
          </mxGeometry>
        </mxCell>
        <mxCell id="jWEoxQ6Ga0XIB12J6IWm-8" value="" style="endArrow=block;endFill=0;endSize=12;html=1;rounded=0;" parent="1" edge="1">
          <mxGeometry width="160" relative="1" as="geometry">
            <mxPoint x="170" y="350" as="sourcePoint" />
            <mxPoint x="650" y="350" as="targetPoint" />
          </mxGeometry>
        </mxCell>
        <mxCell id="jWEoxQ6Ga0XIB12J6IWm-9" value="typeStepsGoal(int)" style="edgeLabel;html=1;align=center;verticalAlign=middle;resizable=0;points=[];" parent="jWEoxQ6Ga0XIB12J6IWm-8" vertex="1" connectable="0">
          <mxGeometry x="0.0382" y="2" relative="1" as="geometry">
            <mxPoint as="offset" />
          </mxGeometry>
        </mxCell>
        <mxCell id="jWEoxQ6Ga0XIB12J6IWm-10" value="&lt;font face=&quot;Georgia&quot;&gt;stepGoal updated&lt;br&gt;&lt;/font&gt;" style="endArrow=open;endFill=1;endSize=12;html=1;rounded=0;dashed=1;" parent="1" edge="1">
          <mxGeometry width="160" relative="1" as="geometry">
            <mxPoint x="650" y="390" as="sourcePoint" />
            <mxPoint x="170" y="390" as="targetPoint" />
          </mxGeometry>
        </mxCell>
        <mxCell id="jWEoxQ6Ga0XIB12J6IWm-16" value="" style="endArrow=classic;html=1;rounded=0;fontFamily=Georgia;dashed=1;" parent="1" edge="1">
          <mxGeometry width="50" height="50" relative="1" as="geometry">
            <mxPoint x="650" y="420" as="sourcePoint" />
            <mxPoint x="170" y="420" as="targetPoint" />
          </mxGeometry>
        </mxCell>
        <mxCell id="jWEoxQ6Ga0XIB12J6IWm-17" value="&lt;div&gt;New Steps Goal is created&lt;/div&gt;" style="edgeLabel;html=1;align=center;verticalAlign=middle;resizable=0;points=[];fontFamily=Georgia;" parent="jWEoxQ6Ga0XIB12J6IWm-16" vertex="1" connectable="0">
          <mxGeometry x="0.0792" y="-2" relative="1" as="geometry">
            <mxPoint x="29" as="offset" />
          </mxGeometry>
        </mxCell>
        <mxCell id="jWEoxQ6Ga0XIB12J6IWm-22" value="" style="endArrow=block;endFill=0;endSize=12;html=1;rounded=0;" parent="1" edge="1">
          <mxGeometry width="160" relative="1" as="geometry">
            <mxPoint x="170" y="370" as="sourcePoint" />
            <mxPoint x="650" y="370" as="targetPoint" />
          </mxGeometry>
        </mxCell>
        <mxCell id="jWEoxQ6Ga0XIB12J6IWm-23" value="onClickSave()" style="edgeLabel;html=1;align=center;verticalAlign=middle;resizable=0;points=[];" parent="jWEoxQ6Ga0XIB12J6IWm-22" vertex="1" connectable="0">
          <mxGeometry x="0.0382" y="2" relative="1" as="geometry">
            <mxPoint as="offset" />
          </mxGeometry>
        </mxCell>
        <mxCell id="p5vUPXscWEIEPARftSgE-1" value="&lt;font style=&quot;font-size: 18px&quot;&gt;Set Step Goal&lt;/font&gt;" style="text;html=1;resizable=0;autosize=1;align=center;verticalAlign=middle;points=[];fillColor=none;strokeColor=none;rounded=0;" parent="1" vertex="1">
          <mxGeometry x="345" y="120" width="130" height="20" as="geometry" />
        </mxCell>
        <mxCell id="p5vUPXscWEIEPARftSgE-3" value="" style="endArrow=block;endFill=0;endSize=12;html=1;rounded=0;" parent="1" edge="1">
          <mxGeometry width="160" relative="1" as="geometry">
            <mxPoint x="170" y="290" as="sourcePoint" />
            <mxPoint x="650" y="290" as="targetPoint" />
          </mxGeometry>
        </mxCell>
        <mxCell id="p5vUPXscWEIEPARftSgE-4" value="&lt;font face=&quot;Georgia&quot;&gt;onClickEdit&lt;/font&gt;()" style="edgeLabel;html=1;align=center;verticalAlign=middle;resizable=0;points=[];" parent="p5vUPXscWEIEPARftSgE-3" vertex="1" connectable="0">
          <mxGeometry x="0.0382" y="2" relative="1" as="geometry">
            <mxPoint as="offset" />
          </mxGeometry>
        </mxCell>
        <mxCell id="p5vUPXscWEIEPARftSgE-5" value="&lt;font face=&quot;Georgia&quot;&gt;Displays Current Step Goal&lt;br&gt;&lt;/font&gt;" style="endArrow=open;endFill=1;endSize=12;html=1;rounded=0;dashed=1;" parent="1" edge="1">
          <mxGeometry width="160" relative="1" as="geometry">
            <mxPoint x="650" y="310" as="sourcePoint" />
            <mxPoint x="170" y="310" as="targetPoint" />
          </mxGeometry>
        </mxCell>
      </root>
    </mxGraphModel>
  </diagram>
</mxfile>
